<svg width="24" height="24" fill="none" xmlns="http://www.w3.org/2000/svg"><path fill-rule="evenodd" clip-rule="evenodd" d="M6.242 3.929L2.616 7.555c-.272.272-.255.493.017.766l11.133 11.132c.272.273.493.29.766.018l5.09-5.09c2.655-2.656 2.434-5.465.34-7.558-1.498-1.498-3.064-2.043-4.851-1.55-.29.086-.426.052-.562-.085-.05-.05-.09-.108-.142-.183a6.777 6.777 0 00-.063-.089c-.204-.306-.544-.783-.816-1.055-2.145-2.145-4.886-2.332-7.286.068zm4.681 4.681l-.868.868c-.273.273-.494.255-.766-.017l-.817-.817c-.273-.272-.29-.494-.017-.766l.868-.868c.442-.443 1.072-.494 1.583.017.528.528.46 1.14.017 1.583zm5.566 2.74l-2.28 2.282c-.273.272-.494.255-.767-.017l-.817-.817c-.272-.273-.29-.494-.017-.766L14.89 9.75c.664-.664 1.294-.784 1.839-.239.561.562.425 1.175-.239 1.839zM3.595 13.386a1.003 1.003 0 000 1.418l7.092 7.093a1.003 1.003 0 001.42-1.418l-7.094-7.093a1.003 1.003 0 00-1.418 0z" fill="#000"/></svg>